<svg width="141" height="31" viewBox="0 0 141 31" fill="none" xmlns="http://www.w3.org/2000/svg">
<g id="Isolation_Mode" clip-path="url(#clip0_94_437)">
<path id="Vector" d="M15.5239 26.4085C15.3911 26.2843 15.2807 26.1866 15.1763 26.0831C11.6957 22.6317 8.21953 19.1759 4.72548 15.7364C4.38234 15.3991 4.43605 15.2246 4.74785 14.9169C8.20312 11.5099 11.6494 8.09403 15.0838 4.66635C15.4075 4.34385 15.5836 4.33793 15.9103 4.66339C19.379 8.12658 22.8626 11.5765 26.3507 15.0189C26.6148 15.2808 26.6476 15.4287 26.3626 15.7098C22.8537 19.1685 19.3596 22.6406 15.8596 26.1097C15.7596 26.2088 15.6463 26.2976 15.5224 26.4071L15.5239 26.4085ZM17.7096 19.2972C17.7096 18.0679 16.7398 17.09 15.5165 17.0871C14.2991 17.0841 13.2875 18.0635 13.2652 19.2632C13.2443 20.4112 14.3229 21.4941 15.4911 21.5C16.701 21.5059 17.7096 20.5044 17.7096 19.2972ZM17.717 11.9359C17.7051 10.7288 16.6906 9.74796 15.4672 9.76276C14.2752 9.77607 13.2532 10.8309 13.2786 12.0188C13.304 13.1771 14.3214 14.1431 15.515 14.1417C16.7533 14.1402 17.729 13.1623 17.717 11.9374V11.9359Z" fill="white"/>
<path id="Vector_2" d="M40.3834 15.5662C40.3834 12.7569 40.4073 9.94909 40.3655 7.13978C40.3566 6.4933 40.5565 6.38678 41.1503 6.39714C43.2121 6.43412 45.2754 6.41193 47.3372 6.41193C53.1049 6.41193 57.3345 10.8737 56.3797 17.1491C55.68 21.7529 52.2471 24.648 47.5699 24.7531C45.3604 24.8034 43.1479 24.756 40.9369 24.7915C40.458 24.7989 40.37 24.6525 40.373 24.2131C40.3924 21.3313 40.3834 18.448 40.3834 15.5648V15.5662ZM44.2639 15.5529C44.2639 17.2749 44.2713 18.9984 44.2579 20.7203C44.2549 21.0709 44.2952 21.2559 44.7264 21.2381C45.6185 21.2026 46.5152 21.2662 47.4058 21.213C48.8366 21.1272 50.1122 20.6478 51.0983 19.5635C52.4157 18.1152 52.6589 16.3651 52.444 14.5307C52.177 12.2406 50.5836 10.5734 48.3084 10.0911C47.1552 9.84701 45.9826 10.0408 44.8233 9.96093C44.3504 9.92838 44.2475 10.0852 44.2549 10.5334C44.2833 12.2066 44.2654 13.8798 44.2654 15.5529H44.2639Z" fill="#FAF9F9"/>
<path id="Vector_3" d="M100.311 23.5731C100.502 24.406 100.102 24.5155 99.4769 24.477C98.7593 24.4312 98.0327 24.4252 97.3166 24.48C96.7363 24.5229 96.6244 24.3128 96.6274 23.7758C96.6498 19.5877 96.6393 15.3997 96.6393 11.2116C96.6393 9.61091 96.6587 8.00876 96.6274 6.40809C96.6184 5.94505 96.7512 5.81782 97.2077 5.83557C98.076 5.87108 98.9473 5.8696 99.8156 5.83557C100.26 5.81782 100.345 5.98203 100.341 6.38442C100.32 8.1064 100.332 9.82985 100.332 11.6865C101.934 10.5666 103.656 10.2751 105.465 10.6124C107.303 10.9556 108.761 11.9291 109.783 13.4972C111.585 16.2636 111.287 20.2579 109.113 22.6308C107.332 24.5747 103.733 25.7434 100.311 23.5731ZM100.333 17.6083C100.333 17.9279 100.305 18.2519 100.339 18.5685C100.399 19.1173 100.08 19.7667 100.497 20.1958C101.048 20.7609 101.797 21.0789 102.591 21.2372C102.784 21.2757 102.981 21.3141 103.178 21.3363C104.995 21.5434 106.701 20.3437 107.051 18.6158C107.487 16.4618 106.568 14.6629 104.705 14.1185C103.429 13.7457 102.212 13.9484 101.067 14.6348C100.57 14.9337 100.236 15.2576 100.318 15.9115C100.388 16.4692 100.333 17.0432 100.333 17.6083Z" fill="#FAF9F9"/>
<path id="Vector_4" d="M86.9268 20.4736C86.9268 21.4633 86.9134 22.3494 86.9342 23.2355C86.9417 23.5403 86.8746 23.7444 86.5702 23.8613C83.5491 25.0196 80.5146 25.2031 77.5845 23.6882C75.0825 22.3938 74.1113 20.1229 74.1769 17.4305C74.2411 14.7543 75.275 12.519 77.7859 11.2571C81.7603 9.25851 87.713 10.9465 87.8189 17.2397C87.8443 18.7397 87.8234 18.7397 86.3241 18.7397C83.8162 18.7397 81.3068 18.7397 78.7989 18.7397C78.0096 18.7397 77.9261 18.8699 78.3334 19.5593C79.1241 20.8981 80.4116 21.4041 81.8811 21.515C83.6177 21.6452 85.2812 21.3271 86.9268 20.4736ZM81.0367 16.2603C81.8274 16.2603 82.6196 16.2441 83.4104 16.2662C83.8714 16.2796 84.0399 16.1997 83.846 15.6908C83.3686 14.4363 82.4481 13.7898 81.0651 13.8164C79.7418 13.8431 78.5109 14.7174 78.1663 15.8417C78.0544 16.2086 78.2021 16.2648 78.5139 16.2618C79.3553 16.2529 80.1953 16.2589 81.0367 16.2589V16.2603Z" fill="#FAF9F9"/>
<path id="Vector_5" d="M72.0346 15.2961C71.9511 16.5239 72.1898 18.0329 71.8794 19.5211C71.217 22.6944 68.1616 25.017 65.0003 24.7521C61.4749 24.4563 58.7894 21.7224 58.7387 18.3258C58.7044 15.9854 58.7447 13.6436 58.7208 11.3018C58.7163 10.8373 58.8521 10.713 59.3071 10.7352C60.1008 10.7722 60.9005 10.784 61.6912 10.7322C62.2492 10.6967 62.3297 10.9157 62.3253 11.4024C62.2999 13.5963 62.3029 15.7887 62.3178 17.9826C62.3282 19.635 63.3189 20.8215 64.8958 21.1203C66.6697 21.4576 68.4093 20.0507 68.4227 18.2341C68.4406 15.9425 68.4391 13.6495 68.4167 11.358C68.4123 10.8964 68.5018 10.7026 69.0195 10.7322C69.8117 10.7781 70.6113 10.781 71.4035 10.7322C71.9555 10.6982 72.057 10.9112 72.0436 11.4024C72.0107 12.6095 72.0331 13.8167 72.0331 15.2946L72.0346 15.2961Z" fill="#FAF9F9"/>
<path id="Vector_6" d="M129.608 20.3908C131.134 21.2414 132.671 21.5447 134.279 21.521C134.753 21.5136 135.216 21.4411 135.654 21.2488C136.024 21.0876 136.289 20.8257 136.28 20.4145C136.271 20.0017 135.992 19.7473 135.617 19.6097C134.728 19.2857 133.779 19.2177 132.866 18.9957C130.658 18.4587 129.505 17.259 129.42 15.4113C129.302 12.8298 130.545 11.2394 133.123 10.7054C135.071 10.3015 136.958 10.4791 138.77 11.3386C139.149 11.519 139.319 11.7395 139.298 12.1833C139.256 13.0428 139.286 13.9067 139.286 14.8742C137.943 14.0709 136.535 13.7174 135.026 13.7721C134.628 13.7869 134.237 13.8209 133.864 13.9792C133.464 14.1479 133.185 14.423 133.19 14.8609C133.194 15.2825 133.5 15.4926 133.875 15.6361C134.644 15.9335 135.474 15.9631 136.262 16.1776C136.357 16.2027 136.459 16.2027 136.556 16.2249C138.853 16.7397 139.95 17.8123 140.047 19.6393C140.176 22.0995 139.177 23.6513 136.891 24.351C134.606 25.0523 132.348 24.8999 130.152 23.9235C129.723 23.7327 129.576 23.4782 129.596 23.0211C129.632 22.1867 129.606 21.3494 129.606 20.3908H129.608Z" fill="#FAF9F9"/>
<path id="Vector_7" d="M119.571 13.9803C119.571 11.8352 119.585 9.69165 119.561 7.54657C119.555 7.0717 119.674 6.90305 120.175 6.9282C120.993 6.9711 121.817 6.96518 122.636 6.92968C123.117 6.90897 123.299 7.04063 123.276 7.54361C123.237 8.4046 123.291 9.27003 123.255 10.131C123.235 10.5985 123.35 10.7775 123.859 10.7538C124.802 10.7109 125.748 10.7612 126.692 10.7331C127.128 10.7198 127.328 10.8145 127.302 11.2953C127.265 11.9832 127.263 12.677 127.302 13.3649C127.329 13.8546 127.111 13.9359 126.686 13.9256C125.742 13.9019 124.796 13.9493 123.853 13.9064C123.322 13.8812 123.252 14.1046 123.258 14.5499C123.279 16.2008 123.258 17.8533 123.268 19.5043C123.277 20.8431 123.996 21.4777 125.364 21.3372C125.854 21.2869 126.347 21.1804 126.814 21.028C127.172 20.9111 127.308 20.9289 127.299 21.3387C127.281 22.176 127.296 23.0148 127.292 23.8521C127.292 24.0415 127.307 24.2116 127.07 24.3403C125.491 25.1969 122.254 24.7693 120.945 23.5133C120.059 22.6642 119.625 21.602 119.604 20.4096C119.565 18.266 119.594 16.121 119.594 13.9774C119.588 13.9774 119.58 13.9774 119.574 13.9774L119.571 13.9803Z" fill="#FAF9F9"/>
<path id="Vector_8" d="M27.965 0.225513C28.7601 0.225513 29.5553 0.237348 30.349 0.219596C30.6952 0.212199 30.8309 0.318713 30.8279 0.678198C30.813 2.23005 30.8145 3.78042 30.8279 5.33227C30.8309 5.64442 30.6743 5.8323 30.4773 6.0261C28.9481 7.53948 27.4144 9.04843 25.8987 10.5751C25.6092 10.8666 25.4332 10.8962 25.1288 10.5885C23.5459 8.98926 21.9466 7.40634 20.3353 5.83526C20.0235 5.53051 20.0653 5.34559 20.3562 5.06155C21.8959 3.55852 23.4221 2.04365 24.9394 0.516948C25.1736 0.281729 25.4153 0.212199 25.7301 0.218116C26.4745 0.23291 27.2205 0.222554 27.965 0.222554V0.225513Z" fill="white"/>
<path id="Vector_9" d="M0.256023 3.03069C0.256023 2.26734 0.26945 1.50399 0.250055 0.740639C0.241103 0.382633 0.315699 0.211027 0.733434 0.216945C2.29695 0.239135 3.86197 0.230259 5.42698 0.221383C5.69403 0.219903 5.89395 0.29831 6.08342 0.489148C7.62904 2.05431 9.17764 3.618 10.7427 5.16393C11.0112 5.42874 10.9605 5.57076 10.7203 5.80598C9.09559 7.39925 7.47537 8.99696 5.87605 10.6139C5.55976 10.9334 5.3867 10.8684 5.10622 10.5858C3.60834 9.07685 2.09555 7.58269 0.576783 6.09297C0.347029 5.86959 0.239612 5.64325 0.248563 5.32075C0.26945 4.5574 0.256023 3.79404 0.256023 3.03069Z" fill="white"/>
<path id="Vector_10" d="M90.0554 15.1705C90.0554 12.2621 90.0659 9.35367 90.045 6.44672C90.042 5.97628 90.1449 5.80468 90.6492 5.83278C91.4414 5.87716 92.2411 5.88012 93.0333 5.83278C93.5823 5.79876 93.7449 5.94374 93.7404 6.51329C93.7121 10.1599 93.7255 13.808 93.7255 17.4561C93.7255 19.5761 93.7106 21.696 93.7375 23.8144C93.7434 24.3248 93.6106 24.5068 93.0765 24.4772C92.259 24.4328 91.4354 24.4358 90.6179 24.4772C90.139 24.5023 90.045 24.3367 90.048 23.8958C90.0674 20.9874 90.0584 18.0789 90.0584 15.172L90.0554 15.1705Z" fill="#FAF9F9"/>
<path id="Vector_11" d="M9.32829 28.0417C9.17313 27.8996 9.03438 27.7665 8.88818 27.6408C8.36899 27.194 7.96618 26.3049 7.3724 26.3478C6.86366 26.3848 6.40713 27.1851 5.93121 27.6526C5.15542 28.4159 4.3662 29.1689 3.61875 29.9589C3.2965 30.2992 3.10106 30.2829 2.79074 29.953C2.14624 29.2695 1.47786 28.6068 0.788599 27.9677C0.470823 27.6733 0.496185 27.4943 0.796059 27.2058C1.95378 26.0889 3.0742 24.935 4.2364 23.8225C4.56611 23.5074 4.59148 23.3166 4.2364 23.0148C3.82165 22.6642 3.46956 22.2411 3.06675 21.8772C2.79074 21.6286 2.74002 21.4496 3.04437 21.1715C3.6098 20.6552 4.15435 20.1108 4.67801 19.5516C4.93462 19.2779 5.09276 19.3253 5.33296 19.5664C7.31123 21.5428 9.29994 23.5074 11.2857 25.4764C11.4632 25.6525 11.6691 25.796 11.3797 26.0682C10.768 26.6466 10.1817 27.2487 9.58191 27.8405C9.51329 27.907 9.43123 27.9603 9.32531 28.0431L9.32829 28.0417Z" fill="white"/>
<path id="Vector_12" d="M28.4025 21.6375C28.1609 21.8121 27.9147 21.9467 27.7267 22.1376C27.3149 22.5577 26.5929 22.9083 26.5779 23.4187C26.5615 23.9409 27.2985 24.2871 27.7088 24.7057C28.5383 25.5534 29.3827 26.3878 30.2451 27.2014C30.5434 27.4825 30.5942 27.6586 30.2689 27.9603C29.5633 28.6157 28.877 29.2947 28.2161 29.9959C27.9117 30.3185 27.7252 30.2637 27.4433 29.9767C26.3333 28.8494 25.1815 27.7636 24.0894 26.62C23.6881 26.1999 23.4613 26.2487 23.0943 26.6393C22.6438 27.1186 22.2186 27.6364 21.6502 27.9973C20.9609 27.3257 20.2657 26.6585 19.5839 25.9795C19.3646 25.7605 19.6003 25.6259 19.7286 25.4987C21.7263 23.5119 23.7314 21.5325 25.7246 19.5413C25.9439 19.3223 26.0901 19.2809 26.3243 19.5221C26.9091 20.1256 27.5178 20.7056 28.1146 21.2958C28.1788 21.3594 28.2325 21.4349 28.4025 21.6375Z" fill="white"/>
<path id="Vector_13" d="M116.89 17.6832C116.89 19.7514 116.878 21.8195 116.899 23.8877C116.903 24.33 116.797 24.4972 116.323 24.4765C115.48 24.438 114.634 24.4454 113.791 24.4735C113.362 24.4883 113.183 24.401 113.186 23.9158C113.205 19.7055 113.202 15.4952 113.189 11.285C113.189 10.8767 113.29 10.7199 113.726 10.7347C114.594 10.7657 115.465 10.7716 116.332 10.7332C116.82 10.711 116.902 10.9018 116.899 11.3308C116.88 13.4478 116.89 15.5648 116.89 17.6832Z" fill="#FAF9F9"/>
<path id="Vector_14" d="M115.044 8.97655C113.726 8.98691 112.752 8.01201 112.752 6.68502C112.752 5.44236 113.76 4.4068 114.994 4.38609C116.265 4.3639 117.332 5.40389 117.341 6.67319C117.35 7.97946 116.365 8.9662 115.045 8.97655H115.044Z" fill="#FAF9F9"/>
</g>
<defs>
<clipPath id="clip0_94_437">
<rect width="139.811" height="30" fill="white" transform="translate(0.248047 0.216797)"/>
</clipPath>
</defs>
</svg>
